<mxfile host="65bd71144e">
    <diagram id="wmVGiwt4uows60JmkgUn" name="Page-1">
        <mxGraphModel dx="1002" dy="1663" grid="1" gridSize="10" guides="1" tooltips="1" connect="1" arrows="1" fold="1" page="1" pageScale="1" pageWidth="850" pageHeight="1100" math="0" shadow="0">
            <root>
                <mxCell id="0"/>
                <mxCell id="1" parent="0"/>
                <mxCell id="182" value="" style="rounded=0;whiteSpace=wrap;html=1;fontSize=13;" vertex="1" parent="1">
                    <mxGeometry x="180" y="2350" width="540" height="890" as="geometry"/>
                </mxCell>
                <mxCell id="2" value="" style="rounded=0;whiteSpace=wrap;html=1;" vertex="1" parent="1">
                    <mxGeometry x="180" y="70" width="530" height="300" as="geometry"/>
                </mxCell>
                <mxCell id="3" value="" style="rounded=0;whiteSpace=wrap;html=1;" vertex="1" parent="1">
                    <mxGeometry x="180" y="170" width="320" height="100" as="geometry"/>
                </mxCell>
                <mxCell id="4" value="" style="endArrow=none;html=1;exitX=1;exitY=0;exitDx=0;exitDy=0;" edge="1" parent="1" source="2">
                    <mxGeometry width="50" height="50" relative="1" as="geometry">
                        <mxPoint x="380" y="250" as="sourcePoint"/>
                        <mxPoint x="500" y="170" as="targetPoint"/>
                    </mxGeometry>
                </mxCell>
                <mxCell id="5" value="" style="endArrow=none;html=1;exitX=0;exitY=0;exitDx=0;exitDy=0;" edge="1" parent="1" source="2">
                    <mxGeometry width="50" height="50" relative="1" as="geometry">
                        <mxPoint x="380" y="250" as="sourcePoint"/>
                        <mxPoint x="500" y="170" as="targetPoint"/>
                    </mxGeometry>
                </mxCell>
                <mxCell id="6" value="REQUEST=?" style="text;html=1;strokeColor=none;fillColor=none;align=center;verticalAlign=middle;whiteSpace=wrap;rounded=0;" vertex="1" parent="1">
                    <mxGeometry x="415" y="100" width="60" height="30" as="geometry"/>
                </mxCell>
                <mxCell id="7" value="GET" style="text;html=1;strokeColor=none;fillColor=none;align=center;verticalAlign=middle;whiteSpace=wrap;rounded=0;" vertex="1" parent="1">
                    <mxGeometry x="210" y="120" width="60" height="30" as="geometry"/>
                </mxCell>
                <mxCell id="8" value="POST" style="text;html=1;strokeColor=none;fillColor=none;align=center;verticalAlign=middle;whiteSpace=wrap;rounded=0;" vertex="1" parent="1">
                    <mxGeometry x="610" y="130" width="60" height="30" as="geometry"/>
                </mxCell>
                <mxCell id="9" value="" style="rounded=0;whiteSpace=wrap;html=1;" vertex="1" parent="1">
                    <mxGeometry x="180" y="270" width="100" height="100" as="geometry"/>
                </mxCell>
                <mxCell id="10" value="" style="rounded=0;whiteSpace=wrap;html=1;" vertex="1" parent="1">
                    <mxGeometry x="280" y="270" width="90" height="100" as="geometry"/>
                </mxCell>
                <mxCell id="11" value="" style="rounded=0;whiteSpace=wrap;html=1;" vertex="1" parent="1">
                    <mxGeometry x="440" y="270" width="60" height="100" as="geometry"/>
                </mxCell>
                <mxCell id="12" value="&lt;font style=&quot;font-size: 7px;&quot;&gt;showIndexContent&lt;/font&gt;" style="text;html=1;strokeColor=none;fillColor=none;align=center;verticalAlign=middle;whiteSpace=wrap;rounded=0;" vertex="1" parent="1">
                    <mxGeometry x="430" y="290" width="80" height="80" as="geometry"/>
                </mxCell>
                <mxCell id="13" value="&lt;font style=&quot;font-size: 10px;&quot;&gt;showAboutContent&lt;/font&gt;" style="text;html=1;strokeColor=none;fillColor=none;align=center;verticalAlign=middle;whiteSpace=wrap;rounded=0;" vertex="1" parent="1">
                    <mxGeometry x="292.5" y="295" width="65" height="30" as="geometry"/>
                </mxCell>
                <mxCell id="14" value="&lt;font style=&quot;font-size: 8px;&quot;&gt;showEmptyContact&lt;/font&gt;" style="text;html=1;strokeColor=none;fillColor=none;align=center;verticalAlign=middle;whiteSpace=wrap;rounded=0;" vertex="1" parent="1">
                    <mxGeometry x="375" y="305" width="60" height="30" as="geometry"/>
                </mxCell>
                <mxCell id="15" value="" style="rounded=0;whiteSpace=wrap;html=1;" vertex="1" parent="1">
                    <mxGeometry x="180" y="170" width="320" height="100" as="geometry"/>
                </mxCell>
                <mxCell id="16" value="" style="endArrow=none;html=1;exitX=0.321;exitY=0.996;exitDx=0;exitDy=0;exitPerimeter=0;entryX=1;entryY=0;entryDx=0;entryDy=0;" edge="1" parent="1" source="15" target="15">
                    <mxGeometry width="50" height="50" relative="1" as="geometry">
                        <mxPoint x="390" y="270" as="sourcePoint"/>
                        <mxPoint x="430" y="250" as="targetPoint"/>
                    </mxGeometry>
                </mxCell>
                <mxCell id="17" value="" style="endArrow=none;html=1;exitX=0;exitY=0;exitDx=0;exitDy=0;" edge="1" parent="1" source="15">
                    <mxGeometry width="50" height="50" relative="1" as="geometry">
                        <mxPoint x="380" y="300" as="sourcePoint"/>
                        <mxPoint x="280" y="270" as="targetPoint"/>
                    </mxGeometry>
                </mxCell>
                <mxCell id="18" value="GET = ?" style="text;html=1;strokeColor=none;fillColor=none;align=center;verticalAlign=middle;whiteSpace=wrap;rounded=0;" vertex="1" parent="1">
                    <mxGeometry x="260" y="190" width="60" height="30" as="geometry"/>
                </mxCell>
                <mxCell id="19" value="index" style="text;html=1;strokeColor=none;fillColor=none;align=center;verticalAlign=middle;whiteSpace=wrap;rounded=0;" vertex="1" parent="1">
                    <mxGeometry x="440" y="230" width="60" height="30" as="geometry"/>
                </mxCell>
                <mxCell id="20" value="about" style="text;html=1;strokeColor=none;fillColor=none;align=center;verticalAlign=middle;whiteSpace=wrap;rounded=0;" vertex="1" parent="1">
                    <mxGeometry x="315" y="240" width="60" height="30" as="geometry"/>
                </mxCell>
                <mxCell id="24" value="" style="rounded=0;whiteSpace=wrap;html=1;fontSize=10;" vertex="1" parent="1">
                    <mxGeometry x="500" y="170" width="210" height="200" as="geometry"/>
                </mxCell>
                <mxCell id="25" value="&lt;span style=&quot;font-size: 12px;&quot;&gt;form_vars := POST[]&lt;br&gt;showContact(handleForm(form_vars))&lt;br&gt;&lt;/span&gt;" style="text;html=1;strokeColor=none;fillColor=none;align=left;verticalAlign=middle;whiteSpace=wrap;rounded=0;fontSize=10;" vertex="1" parent="1">
                    <mxGeometry x="500" y="215" width="140" height="110" as="geometry"/>
                </mxCell>
                <mxCell id="26" value="" style="rounded=0;whiteSpace=wrap;html=1;fontSize=12;" vertex="1" parent="1">
                    <mxGeometry x="180" y="-40" width="530" height="110" as="geometry"/>
                </mxCell>
                <mxCell id="27" value="&lt;font style=&quot;font-size: 13px;&quot;&gt;beginDocument&lt;br&gt;beginBody&lt;br&gt;showHeader&lt;br&gt;showNavBar&lt;/font&gt;" style="text;html=1;strokeColor=none;fillColor=none;align=left;verticalAlign=middle;whiteSpace=wrap;rounded=0;fontSize=12;" vertex="1" parent="1">
                    <mxGeometry x="365" y="-17.5" width="350" height="65" as="geometry"/>
                </mxCell>
                <mxCell id="28" value="" style="rounded=0;whiteSpace=wrap;html=1;fontSize=12;" vertex="1" parent="1">
                    <mxGeometry x="180" y="370" width="530" height="80" as="geometry"/>
                </mxCell>
                <mxCell id="29" value="showFooter&lt;br&gt;endBody&lt;br&gt;endDocument" style="text;html=1;strokeColor=none;fillColor=none;align=center;verticalAlign=middle;whiteSpace=wrap;rounded=0;fontSize=12;" vertex="1" parent="1">
                    <mxGeometry x="353.75" y="395" width="182.5" height="30" as="geometry"/>
                </mxCell>
                <mxCell id="30" value="showContact(values, errors)" style="text;html=1;strokeColor=none;fillColor=none;align=center;verticalAlign=middle;whiteSpace=wrap;rounded=0;fontSize=12;" vertex="1" parent="1">
                    <mxGeometry x="116" y="480" width="339" height="30" as="geometry"/>
                </mxCell>
                <mxCell id="31" value="" style="rounded=0;whiteSpace=wrap;html=1;fontSize=12;" vertex="1" parent="1">
                    <mxGeometry x="180" y="520" width="530" height="430" as="geometry"/>
                </mxCell>
                <mxCell id="34" value="" style="rounded=0;whiteSpace=wrap;html=1;fontSize=12;" vertex="1" parent="1">
                    <mxGeometry x="180" y="520" width="530" height="90" as="geometry"/>
                </mxCell>
                <mxCell id="35" value="" style="endArrow=none;html=1;fontSize=12;entryX=1;entryY=0;entryDx=0;entryDy=0;exitX=0.75;exitY=1;exitDx=0;exitDy=0;" edge="1" parent="1" source="34" target="34">
                    <mxGeometry width="50" height="50" relative="1" as="geometry">
                        <mxPoint x="620" y="610" as="sourcePoint"/>
                        <mxPoint x="530" y="520" as="targetPoint"/>
                    </mxGeometry>
                </mxCell>
                <mxCell id="36" value="" style="endArrow=none;html=1;fontSize=12;entryX=0;entryY=0;entryDx=0;entryDy=0;exitX=0.75;exitY=1;exitDx=0;exitDy=0;" edge="1" parent="1" source="34" target="34">
                    <mxGeometry width="50" height="50" relative="1" as="geometry">
                        <mxPoint x="620" y="610" as="sourcePoint"/>
                        <mxPoint x="530" y="520" as="targetPoint"/>
                    </mxGeometry>
                </mxCell>
                <mxCell id="37" value="empty(errors)" style="text;html=1;strokeColor=none;fillColor=none;align=center;verticalAlign=middle;whiteSpace=wrap;rounded=0;fontSize=12;" vertex="1" parent="1">
                    <mxGeometry x="450" y="535" width="95" height="30" as="geometry"/>
                </mxCell>
                <mxCell id="38" value="NEE" style="text;html=1;strokeColor=none;fillColor=none;align=center;verticalAlign=middle;whiteSpace=wrap;rounded=0;fontSize=12;" vertex="1" parent="1">
                    <mxGeometry x="210" y="565" width="60" height="30" as="geometry"/>
                </mxCell>
                <mxCell id="40" value="JA" style="text;html=1;strokeColor=none;fillColor=none;align=center;verticalAlign=middle;whiteSpace=wrap;rounded=0;fontSize=12;" vertex="1" parent="1">
                    <mxGeometry x="650" y="565" width="60" height="30" as="geometry"/>
                </mxCell>
                <mxCell id="42" value="showThanks(values)" style="text;html=1;strokeColor=none;fillColor=none;align=center;verticalAlign=middle;whiteSpace=wrap;rounded=0;fontSize=12;" vertex="1" parent="1">
                    <mxGeometry x="620" y="755" width="60" height="30" as="geometry"/>
                </mxCell>
                <mxCell id="43" value="" style="rounded=0;whiteSpace=wrap;html=1;fontSize=12;" vertex="1" parent="1">
                    <mxGeometry x="180" y="610" width="400" height="340" as="geometry"/>
                </mxCell>
                <mxCell id="33" value="showGender(values[gender], gender_error)" style="text;html=1;strokeColor=none;fillColor=none;align=center;verticalAlign=middle;whiteSpace=wrap;rounded=0;fontSize=12;" vertex="1" parent="1">
                    <mxGeometry x="245" y="620" width="270" height="30" as="geometry"/>
                </mxCell>
                <mxCell id="44" value="" style="rounded=0;whiteSpace=wrap;html=1;fontSize=12;" vertex="1" parent="1">
                    <mxGeometry x="180" y="660" width="400" height="50" as="geometry"/>
                </mxCell>
                <mxCell id="45" value="showNaam(values[naam], naam_error)" style="text;html=1;strokeColor=none;fillColor=none;align=center;verticalAlign=middle;whiteSpace=wrap;rounded=0;fontSize=12;" vertex="1" parent="1">
                    <mxGeometry x="245" y="670" width="280" height="30" as="geometry"/>
                </mxCell>
                <mxCell id="46" value="" style="rounded=0;whiteSpace=wrap;html=1;fontSize=12;" vertex="1" parent="1">
                    <mxGeometry x="180" y="755" width="400" height="45" as="geometry"/>
                </mxCell>
                <mxCell id="47" value="showEmail(values[email], email_error)" style="text;html=1;strokeColor=none;fillColor=none;align=center;verticalAlign=middle;whiteSpace=wrap;rounded=0;fontSize=12;" vertex="1" parent="1">
                    <mxGeometry x="255" y="720" width="250" height="30" as="geometry"/>
                </mxCell>
                <mxCell id="48" value="showPhone(values[phone], phone_error)" style="text;html=1;strokeColor=none;fillColor=none;align=center;verticalAlign=middle;whiteSpace=wrap;rounded=0;fontSize=12;" vertex="1" parent="1">
                    <mxGeometry x="255" y="762.5" width="250" height="30" as="geometry"/>
                </mxCell>
                <mxCell id="49" value="" style="rounded=0;whiteSpace=wrap;html=1;fontSize=12;" vertex="1" parent="1">
                    <mxGeometry x="180" y="800" width="400" height="60" as="geometry"/>
                </mxCell>
                <mxCell id="50" value="showAdress(values[street], values[housenumber], values[addition], values[postalcode], values[muncipality], post_error)" style="text;html=1;strokeColor=none;fillColor=none;align=center;verticalAlign=middle;whiteSpace=wrap;rounded=0;fontSize=12;" vertex="1" parent="1">
                    <mxGeometry x="180" y="800" width="400" height="60" as="geometry"/>
                </mxCell>
                <mxCell id="51" value="showCommPref(values[comm], comm_error)" style="text;html=1;strokeColor=none;fillColor=none;align=center;verticalAlign=middle;whiteSpace=wrap;rounded=0;fontSize=12;" vertex="1" parent="1">
                    <mxGeometry x="230" y="870" width="300" height="30" as="geometry"/>
                </mxCell>
                <mxCell id="53" value="" style="rounded=0;whiteSpace=wrap;html=1;fontSize=12;" vertex="1" parent="1">
                    <mxGeometry x="180" y="910" width="400" height="40" as="geometry"/>
                </mxCell>
                <mxCell id="54" value="showMessage(values[message], message_error)" style="text;html=1;strokeColor=none;fillColor=none;align=center;verticalAlign=middle;whiteSpace=wrap;rounded=0;fontSize=12;" vertex="1" parent="1">
                    <mxGeometry x="220" y="915" width="330" height="30" as="geometry"/>
                </mxCell>
                <mxCell id="55" value="" style="rounded=0;whiteSpace=wrap;html=1;fontSize=12;" vertex="1" parent="1">
                    <mxGeometry x="180" y="1020" width="530" height="1250" as="geometry"/>
                </mxCell>
                <mxCell id="56" value="handleForm(values)" style="text;html=1;strokeColor=none;fillColor=none;align=center;verticalAlign=middle;whiteSpace=wrap;rounded=0;fontSize=12;" vertex="1" parent="1">
                    <mxGeometry x="210" y="980" width="60" height="30" as="geometry"/>
                </mxCell>
                <mxCell id="58" value="" style="rounded=0;whiteSpace=wrap;html=1;fontSize=12;" vertex="1" parent="1">
                    <mxGeometry x="180" y="1020" width="530" height="50" as="geometry"/>
                </mxCell>
                <mxCell id="59" value="gender := values[gender] name := values[name] email := values[email] street := values[street]" style="text;html=1;strokeColor=none;fillColor=none;align=center;verticalAlign=middle;whiteSpace=wrap;rounded=0;fontSize=12;" vertex="1" parent="1">
                    <mxGeometry x="190" y="1030" width="510" height="30" as="geometry"/>
                </mxCell>
                <mxCell id="60" value="" style="rounded=0;whiteSpace=wrap;html=1;fontSize=12;" vertex="1" parent="1">
                    <mxGeometry x="180" y="1110" width="530" height="50" as="geometry"/>
                </mxCell>
                <mxCell id="61" value="houseNumber := values[houseNumber] houseAdd := values[houseAdd]" style="text;html=1;strokeColor=none;fillColor=none;align=center;verticalAlign=middle;whiteSpace=wrap;rounded=0;fontSize=12;" vertex="1" parent="1">
                    <mxGeometry x="175" y="1070" width="500" height="30" as="geometry"/>
                </mxCell>
                <mxCell id="62" value="&amp;nbsp;postalcode := values[postalcode] municip := values[muncip] message := values[message]" style="text;html=1;strokeColor=none;fillColor=none;align=center;verticalAlign=middle;whiteSpace=wrap;rounded=0;fontSize=12;" vertex="1" parent="1">
                    <mxGeometry x="170" y="1120" width="540" height="30" as="geometry"/>
                </mxCell>
                <mxCell id="65" value="" style="rounded=0;whiteSpace=wrap;html=1;fontSize=12;" vertex="1" parent="1">
                    <mxGeometry x="180" y="1160" width="530" height="100" as="geometry"/>
                </mxCell>
                <mxCell id="66" value="gender == &quot;--&quot;" style="text;html=1;strokeColor=none;fillColor=none;align=center;verticalAlign=middle;whiteSpace=wrap;rounded=0;fontSize=12;" vertex="1" parent="1">
                    <mxGeometry x="370" y="1170" width="135" height="30" as="geometry"/>
                </mxCell>
                <mxCell id="67" value="" style="endArrow=none;html=1;fontSize=12;exitX=0.5;exitY=1;exitDx=0;exitDy=0;entryX=1;entryY=0;entryDx=0;entryDy=0;" edge="1" parent="1" source="65" target="65">
                    <mxGeometry width="50" height="50" relative="1" as="geometry">
                        <mxPoint x="600" y="1310" as="sourcePoint"/>
                        <mxPoint x="650" y="1260" as="targetPoint"/>
                    </mxGeometry>
                </mxCell>
                <mxCell id="68" value="" style="endArrow=none;html=1;fontSize=12;exitX=0;exitY=0;exitDx=0;exitDy=0;entryX=0.5;entryY=1;entryDx=0;entryDy=0;" edge="1" parent="1" source="65" target="65">
                    <mxGeometry width="50" height="50" relative="1" as="geometry">
                        <mxPoint x="600" y="1310" as="sourcePoint"/>
                        <mxPoint x="650" y="1260" as="targetPoint"/>
                    </mxGeometry>
                </mxCell>
                <mxCell id="69" value="NEE" style="text;html=1;strokeColor=none;fillColor=none;align=center;verticalAlign=middle;whiteSpace=wrap;rounded=0;fontSize=12;" vertex="1" parent="1">
                    <mxGeometry x="220" y="1220" width="60" height="30" as="geometry"/>
                </mxCell>
                <mxCell id="70" value="JA" style="text;html=1;strokeColor=none;fillColor=none;align=center;verticalAlign=middle;whiteSpace=wrap;rounded=0;fontSize=12;" vertex="1" parent="1">
                    <mxGeometry x="615" y="1220" width="60" height="30" as="geometry"/>
                </mxCell>
                <mxCell id="71" value="" style="rounded=0;whiteSpace=wrap;html=1;fontSize=12;" vertex="1" parent="1">
                    <mxGeometry x="180" y="1260" width="260" height="80" as="geometry"/>
                </mxCell>
                <mxCell id="72" value="" style="rounded=0;whiteSpace=wrap;html=1;fontSize=12;" vertex="1" parent="1">
                    <mxGeometry x="440" y="1260" width="270" height="80" as="geometry"/>
                </mxCell>
                <mxCell id="73" value="-" style="text;html=1;strokeColor=none;fillColor=none;align=center;verticalAlign=middle;whiteSpace=wrap;rounded=0;fontSize=12;" vertex="1" parent="1">
                    <mxGeometry x="285" y="1285" width="60" height="30" as="geometry"/>
                </mxCell>
                <mxCell id="74" value="genderError := &quot;Vul alsjeblieft je aanhef in of geef aan dat je liever niet laat weten.&quot;" style="text;html=1;strokeColor=none;fillColor=none;align=center;verticalAlign=middle;whiteSpace=wrap;rounded=0;fontSize=12;" vertex="1" parent="1">
                    <mxGeometry x="460" y="1285" width="230" height="30" as="geometry"/>
                </mxCell>
                <mxCell id="76" value="" style="rounded=0;whiteSpace=wrap;html=1;fontSize=12;" vertex="1" parent="1">
                    <mxGeometry x="180" y="1340" width="530" height="90" as="geometry"/>
                </mxCell>
                <mxCell id="77" value="empty(name)" style="text;html=1;strokeColor=none;fillColor=none;align=center;verticalAlign=middle;whiteSpace=wrap;rounded=0;fontSize=12;" vertex="1" parent="1">
                    <mxGeometry x="415" y="1350" width="60" height="30" as="geometry"/>
                </mxCell>
                <mxCell id="78" value="" style="endArrow=none;html=1;fontSize=12;exitX=0.5;exitY=1;exitDx=0;exitDy=0;entryX=1;entryY=0;entryDx=0;entryDy=0;" edge="1" parent="1" source="76" target="76">
                    <mxGeometry width="50" height="50" relative="1" as="geometry">
                        <mxPoint x="600" y="1350" as="sourcePoint"/>
                        <mxPoint x="650" y="1300" as="targetPoint"/>
                    </mxGeometry>
                </mxCell>
                <mxCell id="79" value="" style="endArrow=none;html=1;fontSize=12;exitX=0.5;exitY=1;exitDx=0;exitDy=0;entryX=0;entryY=0;entryDx=0;entryDy=0;" edge="1" parent="1" source="76" target="76">
                    <mxGeometry width="50" height="50" relative="1" as="geometry">
                        <mxPoint x="600" y="1350" as="sourcePoint"/>
                        <mxPoint x="650" y="1300" as="targetPoint"/>
                    </mxGeometry>
                </mxCell>
                <mxCell id="80" value="NEE" style="text;html=1;strokeColor=none;fillColor=none;align=center;verticalAlign=middle;whiteSpace=wrap;rounded=0;fontSize=12;" vertex="1" parent="1">
                    <mxGeometry x="195" y="1380" width="60" height="30" as="geometry"/>
                </mxCell>
                <mxCell id="81" value="" style="rounded=0;whiteSpace=wrap;html=1;fontSize=12;" vertex="1" parent="1">
                    <mxGeometry x="180" y="1430" width="270" height="70" as="geometry"/>
                </mxCell>
                <mxCell id="82" value="" style="rounded=0;whiteSpace=wrap;html=1;fontSize=12;" vertex="1" parent="1">
                    <mxGeometry x="450" y="1430" width="260" height="70" as="geometry"/>
                </mxCell>
                <mxCell id="83" value="JA" style="text;html=1;strokeColor=none;fillColor=none;align=center;verticalAlign=middle;whiteSpace=wrap;rounded=0;fontSize=12;" vertex="1" parent="1">
                    <mxGeometry x="600" y="1380" width="60" height="30" as="geometry"/>
                </mxCell>
                <mxCell id="84" value="nameError :=&amp;nbsp; &quot;Vul alsjeblieft je volledige naam in.&quot;" style="text;html=1;strokeColor=none;fillColor=none;align=center;verticalAlign=middle;whiteSpace=wrap;rounded=0;fontSize=12;" vertex="1" parent="1">
                    <mxGeometry x="450" y="1440" width="250" height="50" as="geometry"/>
                </mxCell>
                <mxCell id="85" value="-" style="text;html=1;strokeColor=none;fillColor=none;align=center;verticalAlign=middle;whiteSpace=wrap;rounded=0;fontSize=12;" vertex="1" parent="1">
                    <mxGeometry x="285" y="1450" width="60" height="30" as="geometry"/>
                </mxCell>
                <mxCell id="86" value="" style="rounded=0;whiteSpace=wrap;html=1;fontSize=12;" vertex="1" parent="1">
                    <mxGeometry x="180" y="1580" width="530" height="80" as="geometry"/>
                </mxCell>
                <mxCell id="87" value="" style="endArrow=none;html=1;fontSize=12;exitX=0.5;exitY=0;exitDx=0;exitDy=0;entryX=1;entryY=1;entryDx=0;entryDy=0;" edge="1" parent="1" source="86" target="82">
                    <mxGeometry width="50" height="50" relative="1" as="geometry">
                        <mxPoint x="750" y="1540" as="sourcePoint"/>
                        <mxPoint x="800" y="1490" as="targetPoint"/>
                    </mxGeometry>
                </mxCell>
                <mxCell id="88" value="" style="endArrow=none;html=1;fontSize=12;exitX=0;exitY=1;exitDx=0;exitDy=0;entryX=0.5;entryY=0;entryDx=0;entryDy=0;" edge="1" parent="1" source="81" target="86">
                    <mxGeometry width="50" height="50" relative="1" as="geometry">
                        <mxPoint x="750" y="1540" as="sourcePoint"/>
                        <mxPoint x="800" y="1490" as="targetPoint"/>
                    </mxGeometry>
                </mxCell>
                <mxCell id="89" value="regex(name)" style="text;html=1;strokeColor=none;fillColor=none;align=center;verticalAlign=middle;whiteSpace=wrap;rounded=0;fontSize=12;" vertex="1" parent="1">
                    <mxGeometry x="420" y="1520" width="60" height="30" as="geometry"/>
                </mxCell>
                <mxCell id="90" value="NEE" style="text;html=1;strokeColor=none;fillColor=none;align=center;verticalAlign=middle;whiteSpace=wrap;rounded=0;fontSize=12;" vertex="1" parent="1">
                    <mxGeometry x="210" y="1540" width="60" height="30" as="geometry"/>
                </mxCell>
                <mxCell id="91" value="JA" style="text;html=1;strokeColor=none;fillColor=none;align=center;verticalAlign=middle;whiteSpace=wrap;rounded=0;fontSize=12;" vertex="1" parent="1">
                    <mxGeometry x="600" y="1540" width="60" height="30" as="geometry"/>
                </mxCell>
                <mxCell id="92" value="" style="rounded=0;whiteSpace=wrap;html=1;fontSize=12;" vertex="1" parent="1">
                    <mxGeometry x="180" y="1580" width="260" height="80" as="geometry"/>
                </mxCell>
                <mxCell id="93" value="nameError := &quot;Vul alsjeblieft een naam in met minstens 1 letter.&quot;" style="text;html=1;strokeColor=none;fillColor=none;align=center;verticalAlign=middle;whiteSpace=wrap;rounded=0;fontSize=12;" vertex="1" parent="1">
                    <mxGeometry x="200" y="1605" width="220" height="30" as="geometry"/>
                </mxCell>
                <mxCell id="94" value="-" style="text;html=1;strokeColor=none;fillColor=none;align=center;verticalAlign=middle;whiteSpace=wrap;rounded=0;fontSize=12;" vertex="1" parent="1">
                    <mxGeometry x="575" y="1605" width="60" height="30" as="geometry"/>
                </mxCell>
                <mxCell id="95" value="" style="rounded=0;whiteSpace=wrap;html=1;fontSize=12;" vertex="1" parent="1">
                    <mxGeometry x="180" y="1730" width="530" height="60" as="geometry"/>
                </mxCell>
                <mxCell id="96" value="empty(message)" style="text;html=1;strokeColor=none;fillColor=none;align=center;verticalAlign=middle;whiteSpace=wrap;rounded=0;fontSize=12;" vertex="1" parent="1">
                    <mxGeometry x="407.5" y="1670" width="60" height="30" as="geometry"/>
                </mxCell>
                <mxCell id="97" value="" style="endArrow=none;html=1;fontSize=12;exitX=0.5;exitY=0;exitDx=0;exitDy=0;entryX=1;entryY=1;entryDx=0;entryDy=0;" edge="1" parent="1" source="95" target="86">
                    <mxGeometry width="50" height="50" relative="1" as="geometry">
                        <mxPoint x="470" y="1620" as="sourcePoint"/>
                        <mxPoint x="520" y="1570" as="targetPoint"/>
                    </mxGeometry>
                </mxCell>
                <mxCell id="98" value="" style="endArrow=none;html=1;fontSize=12;exitX=0;exitY=1;exitDx=0;exitDy=0;entryX=0.5;entryY=0;entryDx=0;entryDy=0;" edge="1" parent="1" source="92" target="95">
                    <mxGeometry width="50" height="50" relative="1" as="geometry">
                        <mxPoint x="470" y="1620" as="sourcePoint"/>
                        <mxPoint x="520" y="1570" as="targetPoint"/>
                    </mxGeometry>
                </mxCell>
                <mxCell id="99" value="JA" style="text;html=1;strokeColor=none;fillColor=none;align=center;verticalAlign=middle;whiteSpace=wrap;rounded=0;fontSize=12;" vertex="1" parent="1">
                    <mxGeometry x="600" y="1690" width="60" height="30" as="geometry"/>
                </mxCell>
                <mxCell id="100" value="NEE" style="text;html=1;strokeColor=none;fillColor=none;align=center;verticalAlign=middle;whiteSpace=wrap;rounded=0;fontSize=12;" vertex="1" parent="1">
                    <mxGeometry x="200" y="1690" width="60" height="30" as="geometry"/>
                </mxCell>
                <mxCell id="101" value="messageError := &quot;Vul alsjeblieft een bericht in.&quot;" style="text;html=1;strokeColor=none;fillColor=none;align=center;verticalAlign=middle;whiteSpace=wrap;rounded=0;fontSize=12;" vertex="1" parent="1">
                    <mxGeometry x="495" y="1745" width="195" height="30" as="geometry"/>
                </mxCell>
                <mxCell id="102" value="" style="rounded=0;whiteSpace=wrap;html=1;fontSize=12;" vertex="1" parent="1">
                    <mxGeometry x="180" y="1730" width="270" height="60" as="geometry"/>
                </mxCell>
                <mxCell id="103" value="-" style="text;html=1;strokeColor=none;fillColor=none;align=center;verticalAlign=middle;whiteSpace=wrap;rounded=0;fontSize=12;" vertex="1" parent="1">
                    <mxGeometry x="285" y="1745" width="60" height="30" as="geometry"/>
                </mxCell>
                <mxCell id="105" value="empty(values[comm])" style="text;html=1;strokeColor=none;fillColor=none;align=center;verticalAlign=middle;whiteSpace=wrap;rounded=0;fontSize=12;" vertex="1" parent="1">
                    <mxGeometry x="350" y="1800" width="190" height="30" as="geometry"/>
                </mxCell>
                <mxCell id="106" value="" style="rounded=0;whiteSpace=wrap;html=1;fontSize=12;" vertex="1" parent="1">
                    <mxGeometry x="180" y="1850" width="530" height="60" as="geometry"/>
                </mxCell>
                <mxCell id="107" value="" style="endArrow=none;html=1;fontSize=12;exitX=0.5;exitY=0;exitDx=0;exitDy=0;entryX=1;entryY=1;entryDx=0;entryDy=0;" edge="1" parent="1" source="106" target="95">
                    <mxGeometry width="50" height="50" relative="1" as="geometry">
                        <mxPoint x="740" y="1900" as="sourcePoint"/>
                        <mxPoint x="790" y="1850" as="targetPoint"/>
                    </mxGeometry>
                </mxCell>
                <mxCell id="108" value="" style="endArrow=none;html=1;fontSize=12;exitX=0;exitY=1;exitDx=0;exitDy=0;entryX=0.5;entryY=0;entryDx=0;entryDy=0;" edge="1" parent="1" source="102" target="106">
                    <mxGeometry width="50" height="50" relative="1" as="geometry">
                        <mxPoint x="740" y="1900" as="sourcePoint"/>
                        <mxPoint x="790" y="1850" as="targetPoint"/>
                    </mxGeometry>
                </mxCell>
                <mxCell id="110" value="NEE" style="text;html=1;strokeColor=none;fillColor=none;align=center;verticalAlign=middle;whiteSpace=wrap;rounded=0;fontSize=12;" vertex="1" parent="1">
                    <mxGeometry x="200" y="1810" width="60" height="30" as="geometry"/>
                </mxCell>
                <mxCell id="111" value="JA" style="text;html=1;strokeColor=none;fillColor=none;align=center;verticalAlign=middle;whiteSpace=wrap;rounded=0;fontSize=12;" vertex="1" parent="1">
                    <mxGeometry x="630" y="1810" width="60" height="30" as="geometry"/>
                </mxCell>
                <mxCell id="112" value="" style="rounded=0;whiteSpace=wrap;html=1;fontSize=12;" vertex="1" parent="1">
                    <mxGeometry x="180" y="1850" width="260" height="60" as="geometry"/>
                </mxCell>
                <mxCell id="113" value="comm := values[comm]" style="text;html=1;strokeColor=none;fillColor=none;align=center;verticalAlign=middle;whiteSpace=wrap;rounded=0;fontSize=12;" vertex="1" parent="1">
                    <mxGeometry x="220" y="1865" width="180" height="30" as="geometry"/>
                </mxCell>
                <mxCell id="114" value="commError := &quot;Vul alsjeblieft je communicatievoorkeur in.&quot;" style="text;html=1;strokeColor=none;fillColor=none;align=center;verticalAlign=middle;whiteSpace=wrap;rounded=0;fontSize=12;" vertex="1" parent="1">
                    <mxGeometry x="460" y="1865" width="220" height="30" as="geometry"/>
                </mxCell>
                <mxCell id="118" value="" style="shape=manualInput;whiteSpace=wrap;html=1;fontSize=13;" vertex="1" parent="1">
                    <mxGeometry x="370" y="200" width="70" height="70" as="geometry"/>
                </mxCell>
                <mxCell id="22" value="contact" style="text;html=1;strokeColor=none;fillColor=none;align=center;verticalAlign=middle;whiteSpace=wrap;rounded=0;" vertex="1" parent="1">
                    <mxGeometry x="375" y="230" width="60" height="30" as="geometry"/>
                </mxCell>
                <mxCell id="120" value="-" style="text;html=1;strokeColor=none;fillColor=none;align=center;verticalAlign=middle;whiteSpace=wrap;rounded=0;fontSize=13;" vertex="1" parent="1">
                    <mxGeometry x="180" y="230" width="60" height="30" as="geometry"/>
                </mxCell>
                <mxCell id="121" value="showNotFound" style="text;html=1;strokeColor=none;fillColor=none;align=center;verticalAlign=middle;whiteSpace=wrap;rounded=0;fontSize=13;" vertex="1" parent="1">
                    <mxGeometry x="200" y="285" width="60" height="30" as="geometry"/>
                </mxCell>
                <mxCell id="125" value="getAndShowPage" style="text;html=1;strokeColor=none;fillColor=none;align=center;verticalAlign=middle;whiteSpace=wrap;rounded=0;fontSize=11;" vertex="1" parent="1">
                    <mxGeometry x="170" y="-70" width="145" height="30" as="geometry"/>
                </mxCell>
                <mxCell id="126" value="regex(email)" style="text;html=1;strokeColor=none;fillColor=none;align=center;verticalAlign=middle;whiteSpace=wrap;rounded=0;fontSize=11;" vertex="1" parent="1">
                    <mxGeometry x="410" y="1920" width="60" height="30" as="geometry"/>
                </mxCell>
                <mxCell id="127" value="" style="rounded=0;whiteSpace=wrap;html=1;fontSize=11;" vertex="1" parent="1">
                    <mxGeometry x="180" y="1970" width="260" height="60" as="geometry"/>
                </mxCell>
                <mxCell id="128" value="" style="rounded=0;whiteSpace=wrap;html=1;fontSize=11;" vertex="1" parent="1">
                    <mxGeometry x="440" y="1970" width="270" height="60" as="geometry"/>
                </mxCell>
                <mxCell id="129" value="" style="endArrow=none;html=1;fontSize=11;exitX=0;exitY=0;exitDx=0;exitDy=0;entryX=1;entryY=1;entryDx=0;entryDy=0;" edge="1" parent="1" source="128" target="106">
                    <mxGeometry width="50" height="50" relative="1" as="geometry">
                        <mxPoint x="620" y="2040" as="sourcePoint"/>
                        <mxPoint x="670" y="1990" as="targetPoint"/>
                    </mxGeometry>
                </mxCell>
                <mxCell id="130" value="" style="endArrow=none;html=1;fontSize=11;exitX=0;exitY=1;exitDx=0;exitDy=0;entryX=1;entryY=0;entryDx=0;entryDy=0;" edge="1" parent="1" source="112" target="127">
                    <mxGeometry width="50" height="50" relative="1" as="geometry">
                        <mxPoint x="620" y="2040" as="sourcePoint"/>
                        <mxPoint x="670" y="1990" as="targetPoint"/>
                    </mxGeometry>
                </mxCell>
                <mxCell id="131" value="JA" style="text;html=1;strokeColor=none;fillColor=none;align=center;verticalAlign=middle;whiteSpace=wrap;rounded=0;fontSize=11;" vertex="1" parent="1">
                    <mxGeometry x="630" y="1930" width="60" height="30" as="geometry"/>
                </mxCell>
                <mxCell id="132" value="NEE" style="text;html=1;strokeColor=none;fillColor=none;align=center;verticalAlign=middle;whiteSpace=wrap;rounded=0;fontSize=11;" vertex="1" parent="1">
                    <mxGeometry x="190" y="1930" width="60" height="30" as="geometry"/>
                </mxCell>
                <mxCell id="133" value="emailError := &quot;Vul alsjeblieft een geldig emailadres in.&quot;" style="text;html=1;strokeColor=none;fillColor=none;align=center;verticalAlign=middle;whiteSpace=wrap;rounded=0;fontSize=11;" vertex="1" parent="1">
                    <mxGeometry x="210" y="1985" width="200" height="30" as="geometry"/>
                </mxCell>
                <mxCell id="134" value="-" style="text;html=1;strokeColor=none;fillColor=none;align=center;verticalAlign=middle;whiteSpace=wrap;rounded=0;fontSize=11;" vertex="1" parent="1">
                    <mxGeometry x="575" y="1985" width="60" height="30" as="geometry"/>
                </mxCell>
                <mxCell id="136" value="empty(phone) &amp;amp;&amp;amp; comm == &quot;Phone&quot;" style="text;html=1;strokeColor=none;fillColor=none;align=center;verticalAlign=middle;whiteSpace=wrap;rounded=0;fontSize=11;" vertex="1" parent="1">
                    <mxGeometry x="340" y="2040" width="200" height="30" as="geometry"/>
                </mxCell>
                <mxCell id="137" value="" style="rounded=0;whiteSpace=wrap;html=1;fontSize=11;" vertex="1" parent="1">
                    <mxGeometry x="180" y="2090" width="270" height="60" as="geometry"/>
                </mxCell>
                <mxCell id="138" value="" style="endArrow=none;html=1;fontSize=11;exitX=1;exitY=0;exitDx=0;exitDy=0;entryX=1;entryY=1;entryDx=0;entryDy=0;" edge="1" parent="1" source="141" target="128">
                    <mxGeometry width="50" height="50" relative="1" as="geometry">
                        <mxPoint x="750" y="2030" as="sourcePoint"/>
                        <mxPoint x="800" y="1980" as="targetPoint"/>
                    </mxGeometry>
                </mxCell>
                <mxCell id="140" value="NEE" style="text;html=1;strokeColor=none;fillColor=none;align=center;verticalAlign=middle;whiteSpace=wrap;rounded=0;fontSize=11;" vertex="1" parent="1">
                    <mxGeometry x="195" y="2060" width="60" height="30" as="geometry"/>
                </mxCell>
                <mxCell id="141" value="" style="rounded=0;whiteSpace=wrap;html=1;fontSize=11;" vertex="1" parent="1">
                    <mxGeometry x="180" y="2090" width="270" height="60" as="geometry"/>
                </mxCell>
                <mxCell id="142" value="JA" style="text;html=1;strokeColor=none;fillColor=none;align=center;verticalAlign=middle;whiteSpace=wrap;rounded=0;fontSize=11;" vertex="1" parent="1">
                    <mxGeometry x="620" y="2060" width="60" height="30" as="geometry"/>
                </mxCell>
                <mxCell id="144" value="" style="endArrow=none;html=1;fontSize=11;exitX=0;exitY=1;exitDx=0;exitDy=0;entryX=1;entryY=0;entryDx=0;entryDy=0;" edge="1" parent="1" source="127" target="141">
                    <mxGeometry width="50" height="50" relative="1" as="geometry">
                        <mxPoint x="750" y="2000" as="sourcePoint"/>
                        <mxPoint x="800" y="1950" as="targetPoint"/>
                    </mxGeometry>
                </mxCell>
                <mxCell id="145" value="!empty(phone) &amp;amp;&amp;amp; !regex(phone)" style="text;html=1;strokeColor=none;fillColor=none;align=center;verticalAlign=middle;whiteSpace=wrap;rounded=0;fontSize=11;" vertex="1" parent="1">
                    <mxGeometry x="220" y="2090" width="180" height="30" as="geometry"/>
                </mxCell>
                <mxCell id="146" value="" style="endArrow=none;html=1;fontSize=11;exitX=0.5;exitY=1;exitDx=0;exitDy=0;entryX=1;entryY=0;entryDx=0;entryDy=0;" edge="1" parent="1" source="141" target="141">
                    <mxGeometry width="50" height="50" relative="1" as="geometry">
                        <mxPoint x="750" y="1990" as="sourcePoint"/>
                        <mxPoint x="800" y="1940" as="targetPoint"/>
                    </mxGeometry>
                </mxCell>
                <mxCell id="147" value="" style="endArrow=none;html=1;fontSize=11;exitX=0;exitY=0;exitDx=0;exitDy=0;entryX=0.5;entryY=1;entryDx=0;entryDy=0;" edge="1" parent="1" source="141" target="141">
                    <mxGeometry width="50" height="50" relative="1" as="geometry">
                        <mxPoint x="750" y="1990" as="sourcePoint"/>
                        <mxPoint x="800" y="1940" as="targetPoint"/>
                    </mxGeometry>
                </mxCell>
                <mxCell id="148" value="JA" style="text;html=1;strokeColor=none;fillColor=none;align=center;verticalAlign=middle;whiteSpace=wrap;rounded=0;fontSize=11;" vertex="1" parent="1">
                    <mxGeometry x="380" y="2120" width="60" height="30" as="geometry"/>
                </mxCell>
                <mxCell id="149" value="NEE" style="text;html=1;strokeColor=none;fillColor=none;align=center;verticalAlign=middle;whiteSpace=wrap;rounded=0;fontSize=11;" vertex="1" parent="1">
                    <mxGeometry x="195" y="2120" width="60" height="30" as="geometry"/>
                </mxCell>
                <mxCell id="150" value="" style="rounded=0;whiteSpace=wrap;html=1;fontSize=11;" vertex="1" parent="1">
                    <mxGeometry x="180" y="2150" width="140" height="60" as="geometry"/>
                </mxCell>
                <mxCell id="151" value="" style="rounded=0;whiteSpace=wrap;html=1;fontSize=11;" vertex="1" parent="1">
                    <mxGeometry x="320" y="2150" width="130" height="60" as="geometry"/>
                </mxCell>
                <mxCell id="152" value="" style="rounded=0;whiteSpace=wrap;html=1;fontSize=11;" vertex="1" parent="1">
                    <mxGeometry x="447.5" y="2090" width="262.5" height="120" as="geometry"/>
                </mxCell>
                <mxCell id="143" value="phoneError := &quot;Vul alsjeblieft een telefoonnummer in.&quot;" style="text;html=1;strokeColor=none;fillColor=none;align=center;verticalAlign=middle;whiteSpace=wrap;rounded=0;fontSize=11;" vertex="1" parent="1">
                    <mxGeometry x="485" y="2135" width="205" height="30" as="geometry"/>
                </mxCell>
                <mxCell id="153" value="-" style="text;html=1;strokeColor=none;fillColor=none;align=center;verticalAlign=middle;whiteSpace=wrap;rounded=0;fontSize=11;" vertex="1" parent="1">
                    <mxGeometry x="200" y="2160" width="60" height="30" as="geometry"/>
                </mxCell>
                <mxCell id="154" value="phoneError := &quot;Vul alsjeblieft een geldig telefoonnummer in.&quot;" style="text;html=1;strokeColor=none;fillColor=none;align=center;verticalAlign=middle;whiteSpace=wrap;rounded=0;fontSize=11;" vertex="1" parent="1">
                    <mxGeometry x="330" y="2165" width="110" height="30" as="geometry"/>
                </mxCell>
                <mxCell id="155" value="handlePost(comm, street, housenumber, postcode, municip)" style="text;html=1;strokeColor=none;fillColor=none;align=center;verticalAlign=middle;whiteSpace=wrap;rounded=0;fontSize=11;" vertex="1" parent="1">
                    <mxGeometry x="310" y="2220" width="300" height="30" as="geometry"/>
                </mxCell>
                <mxCell id="156" value="&lt;div style=&quot;color: rgb(187, 187, 187); background-color: rgb(40, 44, 52); font-family: Consolas, &amp;quot;Courier New&amp;quot;, monospace; font-weight: normal; font-size: 14px; line-height: 19px;&quot;&gt;&lt;div&gt;&lt;span style=&quot;color: #56b6c2;&quot;&gt;function&lt;/span&gt;&lt;span style=&quot;color: #bbbbbb;&quot;&gt; &lt;/span&gt;&lt;span style=&quot;color: #98c379;&quot;&gt;handle_post&lt;/span&gt;&lt;span style=&quot;color: #bbbbbb;&quot;&gt;(&lt;/span&gt;&lt;span style=&quot;color: #abb2bf;&quot;&gt;$comm,&lt;/span&gt;&lt;span style=&quot;color: #bbbbbb;&quot;&gt; &lt;/span&gt;&lt;span style=&quot;color: #abb2bf;&quot;&gt;$street,&lt;/span&gt;&lt;span style=&quot;color: #bbbbbb;&quot;&gt; &lt;/span&gt;&lt;span style=&quot;color: #abb2bf;&quot;&gt;$housenumber,&lt;/span&gt;&lt;span style=&quot;color: #bbbbbb;&quot;&gt; &lt;/span&gt;&lt;span style=&quot;color: #abb2bf;&quot;&gt;$postalcode,&lt;/span&gt;&lt;span style=&quot;color: #bbbbbb;&quot;&gt; &lt;/span&gt;&lt;span style=&quot;color: #abb2bf;&quot;&gt;$municip&lt;/span&gt;&lt;span style=&quot;color: #bbbbbb;&quot;&gt;) {&lt;/span&gt;&lt;/div&gt;&lt;div&gt;&lt;span style=&quot;color: #bbbbbb;&quot;&gt;&amp;nbsp; &amp;nbsp; &lt;/span&gt;&lt;span style=&quot;color: #676f7d;&quot;&gt;# To avoid calling empty twice per var.&lt;/span&gt;&lt;/div&gt;&lt;div&gt;&lt;span style=&quot;color: #bbbbbb;&quot;&gt;&amp;nbsp; &amp;nbsp; &lt;/span&gt;&lt;span style=&quot;color: #abb2bf;&quot;&gt;$street_flag&lt;/span&gt;&lt;span style=&quot;color: #bbbbbb;&quot;&gt; &lt;/span&gt;&lt;span style=&quot;color: #e06c75;&quot;&gt;=&lt;/span&gt;&lt;span style=&quot;color: #bbbbbb;&quot;&gt; &lt;/span&gt;&lt;span style=&quot;color: #98c379;&quot;&gt;empty&lt;/span&gt;&lt;span style=&quot;color: #bbbbbb;&quot;&gt;(&lt;/span&gt;&lt;span style=&quot;color: #abb2bf;&quot;&gt;$street&lt;/span&gt;&lt;span style=&quot;color: #bbbbbb;&quot;&gt;);&lt;/span&gt;&lt;/div&gt;&lt;div&gt;&lt;span style=&quot;color: #bbbbbb;&quot;&gt;&amp;nbsp; &amp;nbsp; &lt;/span&gt;&lt;span style=&quot;color: #abb2bf;&quot;&gt;$housenumber_flag&lt;/span&gt;&lt;span style=&quot;color: #bbbbbb;&quot;&gt; &lt;/span&gt;&lt;span style=&quot;color: #e06c75;&quot;&gt;=&lt;/span&gt;&lt;span style=&quot;color: #bbbbbb;&quot;&gt; &lt;/span&gt;&lt;span style=&quot;color: #98c379;&quot;&gt;empty&lt;/span&gt;&lt;span style=&quot;color: #bbbbbb;&quot;&gt;(&lt;/span&gt;&lt;span style=&quot;color: #abb2bf;&quot;&gt;$housenumber&lt;/span&gt;&lt;span style=&quot;color: #bbbbbb;&quot;&gt;);&lt;/span&gt;&lt;/div&gt;&lt;div&gt;&lt;span style=&quot;color: #bbbbbb;&quot;&gt;&amp;nbsp; &amp;nbsp; &lt;/span&gt;&lt;span style=&quot;color: #abb2bf;&quot;&gt;$postalcode_flag&lt;/span&gt;&lt;span style=&quot;color: #bbbbbb;&quot;&gt; &lt;/span&gt;&lt;span style=&quot;color: #e06c75;&quot;&gt;=&lt;/span&gt;&lt;span style=&quot;color: #bbbbbb;&quot;&gt; &lt;/span&gt;&lt;span style=&quot;color: #98c379;&quot;&gt;empty&lt;/span&gt;&lt;span style=&quot;color: #bbbbbb;&quot;&gt;(&lt;/span&gt;&lt;span style=&quot;color: #abb2bf;&quot;&gt;$postalcode&lt;/span&gt;&lt;span style=&quot;color: #bbbbbb;&quot;&gt;);&lt;/span&gt;&lt;/div&gt;&lt;div&gt;&lt;span style=&quot;color: #bbbbbb;&quot;&gt;&amp;nbsp; &amp;nbsp; &lt;/span&gt;&lt;span style=&quot;color: #abb2bf;&quot;&gt;$municip_flag&lt;/span&gt;&lt;span style=&quot;color: #bbbbbb;&quot;&gt; &lt;/span&gt;&lt;span style=&quot;color: #e06c75;&quot;&gt;=&lt;/span&gt;&lt;span style=&quot;color: #bbbbbb;&quot;&gt; &lt;/span&gt;&lt;span style=&quot;color: #98c379;&quot;&gt;empty&lt;/span&gt;&lt;span style=&quot;color: #bbbbbb;&quot;&gt;(&lt;/span&gt;&lt;span style=&quot;color: #abb2bf;&quot;&gt;$municip&lt;/span&gt;&lt;span style=&quot;color: #bbbbbb;&quot;&gt;);&lt;/span&gt;&lt;/div&gt;&lt;br&gt;&lt;div&gt;&lt;span style=&quot;color: #bbbbbb;&quot;&gt;&amp;nbsp; &amp;nbsp; &lt;/span&gt;&lt;span style=&quot;color: #e06c75;&quot;&gt;if&lt;/span&gt;&lt;span style=&quot;color: #bbbbbb;&quot;&gt; (&lt;/span&gt;&lt;span style=&quot;color: #abb2bf;&quot;&gt;$comm&lt;/span&gt;&lt;span style=&quot;color: #bbbbbb;&quot;&gt; &lt;/span&gt;&lt;span style=&quot;color: #e06c75;&quot;&gt;!=&lt;/span&gt;&lt;span style=&quot;color: #bbbbbb;&quot;&gt; &lt;/span&gt;&lt;span style=&quot;color: #e5c07b;&quot;&gt;&quot;Post&quot;&lt;/span&gt;&lt;span style=&quot;color: #bbbbbb;&quot;&gt; &lt;/span&gt;&lt;span style=&quot;color: #e06c75;&quot;&gt;&amp;amp;&amp;amp;&lt;/span&gt;&lt;span style=&quot;color: #bbbbbb;&quot;&gt; &lt;/span&gt;&lt;span style=&quot;color: #abb2bf;&quot;&gt;$street_flag&lt;/span&gt;&lt;span style=&quot;color: #bbbbbb;&quot;&gt; &lt;/span&gt;&lt;span style=&quot;color: #e06c75;&quot;&gt;&amp;amp;&amp;amp;&lt;/span&gt;&lt;span style=&quot;color: #bbbbbb;&quot;&gt; &lt;/span&gt;&lt;span style=&quot;color: #abb2bf;&quot;&gt;$housenumber_flag&lt;/span&gt;&lt;span style=&quot;color: #bbbbbb;&quot;&gt; &lt;/span&gt;&lt;span style=&quot;color: #e06c75;&quot;&gt;&amp;amp;&amp;amp;&lt;/span&gt;&lt;span style=&quot;color: #bbbbbb;&quot;&gt; &lt;/span&gt;&lt;span style=&quot;color: #abb2bf;&quot;&gt;$postalcode_flag&lt;/span&gt;&lt;span style=&quot;color: #bbbbbb;&quot;&gt; &lt;/span&gt;&lt;span style=&quot;color: #e06c75;&quot;&gt;&amp;amp;&amp;amp;&lt;/span&gt;&lt;span style=&quot;color: #bbbbbb;&quot;&gt; &lt;/span&gt;&lt;span style=&quot;color: #abb2bf;&quot;&gt;$municip_flag&lt;/span&gt;&lt;span style=&quot;color: #bbbbbb;&quot;&gt;) {&lt;/span&gt;&lt;/div&gt;&lt;div&gt;&lt;span style=&quot;color: #bbbbbb;&quot;&gt;&amp;nbsp; &amp;nbsp; &amp;nbsp; &amp;nbsp; &lt;/span&gt;&lt;span style=&quot;color: #e06c75;&quot;&gt;return&lt;/span&gt;&lt;span style=&quot;color: #bbbbbb;&quot;&gt; &lt;/span&gt;&lt;span style=&quot;color: #e5c07b;&quot;&gt;&quot;&quot;&lt;/span&gt;&lt;span style=&quot;color: #bbbbbb;&quot;&gt;;&lt;/span&gt;&lt;/div&gt;&lt;div&gt;&lt;span style=&quot;color: #bbbbbb;&quot;&gt;&amp;nbsp; &amp;nbsp; }&lt;/span&gt;&lt;/div&gt;&lt;div&gt;&lt;span style=&quot;color: #bbbbbb;&quot;&gt;&amp;nbsp; &amp;nbsp; &lt;/span&gt;&lt;span style=&quot;color: #e06c75;&quot;&gt;if&lt;/span&gt;&lt;span style=&quot;color: #bbbbbb;&quot;&gt; (&lt;/span&gt;&lt;span style=&quot;color: #abb2bf;&quot;&gt;$street_flag&lt;/span&gt;&lt;span style=&quot;color: #bbbbbb;&quot;&gt;) {&lt;/span&gt;&lt;/div&gt;&lt;div&gt;&lt;span style=&quot;color: #bbbbbb;&quot;&gt;&amp;nbsp; &amp;nbsp; &amp;nbsp; &amp;nbsp; &lt;/span&gt;&lt;span style=&quot;color: #e06c75;&quot;&gt;return&lt;/span&gt;&lt;span style=&quot;color: #bbbbbb;&quot;&gt; &lt;/span&gt;&lt;span style=&quot;color: #e5c07b;&quot;&gt;&quot;Vul alsjeblieft je straatnaam in.&quot;&lt;/span&gt;&lt;span style=&quot;color: #bbbbbb;&quot;&gt;;&lt;/span&gt;&lt;/div&gt;&lt;div&gt;&lt;span style=&quot;color: #bbbbbb;&quot;&gt;&amp;nbsp; &amp;nbsp; }&lt;/span&gt;&lt;/div&gt;&lt;div&gt;&lt;span style=&quot;color: #bbbbbb;&quot;&gt;&amp;nbsp; &amp;nbsp; &lt;/span&gt;&lt;span style=&quot;color: #e06c75;&quot;&gt;if&lt;/span&gt;&lt;span style=&quot;color: #bbbbbb;&quot;&gt; (&lt;/span&gt;&lt;span style=&quot;color: #abb2bf;&quot;&gt;$housenumber_flag&lt;/span&gt;&lt;span style=&quot;color: #bbbbbb;&quot;&gt;) {&lt;/span&gt;&lt;/div&gt;&lt;div&gt;&lt;span style=&quot;color: #bbbbbb;&quot;&gt;&amp;nbsp; &amp;nbsp; &amp;nbsp; &amp;nbsp; &lt;/span&gt;&lt;span style=&quot;color: #e06c75;&quot;&gt;return&lt;/span&gt;&lt;span style=&quot;color: #bbbbbb;&quot;&gt; &lt;/span&gt;&lt;span style=&quot;color: #e5c07b;&quot;&gt;&quot;Vul alsjeblieft je huisnummer in.&quot;&lt;/span&gt;&lt;span style=&quot;color: #bbbbbb;&quot;&gt;;&lt;/span&gt;&lt;/div&gt;&lt;div&gt;&lt;span style=&quot;color: #bbbbbb;&quot;&gt;&amp;nbsp; &amp;nbsp; }&lt;/span&gt;&lt;/div&gt;&lt;div&gt;&lt;span style=&quot;color: #bbbbbb;&quot;&gt;&amp;nbsp; &amp;nbsp; &lt;/span&gt;&lt;span style=&quot;color: #e06c75;&quot;&gt;if&lt;/span&gt;&lt;span style=&quot;color: #bbbbbb;&quot;&gt; (&lt;/span&gt;&lt;span style=&quot;color: #abb2bf;&quot;&gt;$postalcode_flag&lt;/span&gt;&lt;span style=&quot;color: #bbbbbb;&quot;&gt;) {&lt;/span&gt;&lt;/div&gt;&lt;div&gt;&lt;span style=&quot;color: #bbbbbb;&quot;&gt;&amp;nbsp; &amp;nbsp; &amp;nbsp; &amp;nbsp; &lt;/span&gt;&lt;span style=&quot;color: #e06c75;&quot;&gt;return&lt;/span&gt;&lt;span style=&quot;color: #bbbbbb;&quot;&gt; &lt;/span&gt;&lt;span style=&quot;color: #e5c07b;&quot;&gt;&quot;Vul alsjeblieft je postcode in.&quot;&lt;/span&gt;&lt;span style=&quot;color: #bbbbbb;&quot;&gt;;&lt;/span&gt;&lt;/div&gt;&lt;div&gt;&lt;span style=&quot;color: #bbbbbb;&quot;&gt;&amp;nbsp; &amp;nbsp; }&lt;/span&gt;&lt;/div&gt;&lt;div&gt;&lt;span style=&quot;color: #bbbbbb;&quot;&gt;&amp;nbsp; &amp;nbsp; &lt;/span&gt;&lt;span style=&quot;color: #e06c75;&quot;&gt;if&lt;/span&gt;&lt;span style=&quot;color: #bbbbbb;&quot;&gt; (&lt;/span&gt;&lt;span style=&quot;color: #e06c75;&quot;&gt;!&lt;/span&gt;&lt;span style=&quot;color: #98c379;&quot;&gt;preg_match&lt;/span&gt;&lt;span style=&quot;color: #bbbbbb;&quot;&gt;(&lt;/span&gt;&lt;span style=&quot;color: #e5c07b;&quot;&gt;'/&lt;/span&gt;&lt;span style=&quot;color: #e06c75;&quot;&gt;^&lt;/span&gt;&lt;span style=&quot;color: #e5c07b;&quot;&gt;[0-9]{4}[A-Z]{2}&lt;/span&gt;&lt;span style=&quot;color: #e06c75;&quot;&gt;$&lt;/span&gt;&lt;span style=&quot;color: #e5c07b;&quot;&gt;/'&lt;/span&gt;&lt;span style=&quot;color: #abb2bf;&quot;&gt;,&lt;/span&gt;&lt;span style=&quot;color: #bbbbbb;&quot;&gt; &lt;/span&gt;&lt;span style=&quot;color: #abb2bf;&quot;&gt;$postalcode&lt;/span&gt;&lt;span style=&quot;color: #bbbbbb;&quot;&gt;)) {&lt;/span&gt;&lt;/div&gt;&lt;div&gt;&lt;span style=&quot;color: #bbbbbb;&quot;&gt;&amp;nbsp; &amp;nbsp; &amp;nbsp; &amp;nbsp; &lt;/span&gt;&lt;span style=&quot;color: #e06c75;&quot;&gt;return&lt;/span&gt;&lt;span style=&quot;color: #bbbbbb;&quot;&gt; &lt;/span&gt;&lt;span style=&quot;color: #e5c07b;&quot;&gt;&quot;Vul alsjeblieft een geldige Nederlands postcode in.&quot;&lt;/span&gt;&lt;span style=&quot;color: #bbbbbb;&quot;&gt;;&lt;/span&gt;&lt;/div&gt;&lt;div&gt;&lt;span style=&quot;color: #bbbbbb;&quot;&gt;&amp;nbsp; &amp;nbsp; }&lt;/span&gt;&lt;/div&gt;&lt;div&gt;&lt;span style=&quot;color: #bbbbbb;&quot;&gt;&amp;nbsp; &amp;nbsp; &lt;/span&gt;&lt;span style=&quot;color: #e06c75;&quot;&gt;if&lt;/span&gt;&lt;span style=&quot;color: #bbbbbb;&quot;&gt; (&lt;/span&gt;&lt;span style=&quot;color: #abb2bf;&quot;&gt;$municip_flag&lt;/span&gt;&lt;span style=&quot;color: #bbbbbb;&quot;&gt;) {&lt;/span&gt;&lt;/div&gt;&lt;div&gt;&lt;span style=&quot;color: #bbbbbb;&quot;&gt;&amp;nbsp; &amp;nbsp; &amp;nbsp; &amp;nbsp; &lt;/span&gt;&lt;span style=&quot;color: #e06c75;&quot;&gt;return&lt;/span&gt;&lt;span style=&quot;color: #bbbbbb;&quot;&gt; &lt;/span&gt;&lt;span style=&quot;color: #e5c07b;&quot;&gt;&quot;Vul alsjeblieft je gemeente in.&quot;&lt;/span&gt;&lt;span style=&quot;color: #bbbbbb;&quot;&gt;;&lt;/span&gt;&lt;/div&gt;&lt;div&gt;&lt;span style=&quot;color: #bbbbbb;&quot;&gt;&amp;nbsp; &amp;nbsp; }&lt;/span&gt;&lt;/div&gt;&lt;br&gt;&lt;/div&gt;" style="text;whiteSpace=wrap;html=1;fontSize=11;" vertex="1" parent="1">
                    <mxGeometry x="780" y="2330" width="560" height="570" as="geometry"/>
                </mxCell>
                <mxCell id="158" value="&lt;font style=&quot;font-size: 12px;&quot;&gt;handlePost(comm, street, houseNumber, postcode, municip&lt;/font&gt;" style="text;html=1;strokeColor=none;fillColor=none;align=center;verticalAlign=middle;whiteSpace=wrap;rounded=0;fontSize=11;" vertex="1" parent="1">
                    <mxGeometry x="150" y="2320" width="415" height="30" as="geometry"/>
                </mxCell>
                <mxCell id="160" value="" style="rounded=0;whiteSpace=wrap;html=1;fontSize=11;" vertex="1" parent="1">
                    <mxGeometry x="180" y="2430" width="540" height="140" as="geometry"/>
                </mxCell>
                <mxCell id="161" value="&lt;div style=&quot;font-size: 13px;&quot;&gt;&lt;span style=&quot;background-color: initial;&quot;&gt;&lt;font style=&quot;font-size: 13px;&quot;&gt;streetFlag := empty(street) houseNumberFlag := empty(houseNumber) :=&amp;nbsp;&lt;/font&gt;&lt;/span&gt;&lt;/div&gt;&lt;div style=&quot;font-size: 13px;&quot;&gt;&lt;span style=&quot;background-color: initial;&quot;&gt;&lt;font style=&quot;font-size: 13px;&quot;&gt;postalcodeFlag := empty(postalcode) municipFlag := empty(municip)&lt;/font&gt;&lt;/span&gt;&lt;br&gt;&lt;/div&gt;" style="text;html=1;strokeColor=none;fillColor=none;align=left;verticalAlign=middle;whiteSpace=wrap;rounded=0;fontSize=11;" vertex="1" parent="1">
                    <mxGeometry x="195" y="2330" width="540" height="100" as="geometry"/>
                </mxCell>
                <mxCell id="162" value="comm == &quot;Post&quot; &amp;amp;&amp;amp; streetFlag &amp;amp;&amp;amp; houseNumberFlag &amp;amp;&amp;amp; postalcodeFlag &amp;amp;&amp;amp; municipFlag" style="text;html=1;strokeColor=none;fillColor=none;align=center;verticalAlign=middle;whiteSpace=wrap;rounded=0;fontSize=13;" vertex="1" parent="1">
                    <mxGeometry x="290" y="2460" width="330" height="30" as="geometry"/>
                </mxCell>
                <mxCell id="163" value="" style="endArrow=none;html=1;fontSize=13;exitX=0.5;exitY=1;exitDx=0;exitDy=0;entryX=1;entryY=0;entryDx=0;entryDy=0;" edge="1" parent="1" source="160" target="160">
                    <mxGeometry width="50" height="50" relative="1" as="geometry">
                        <mxPoint x="660" y="2660" as="sourcePoint"/>
                        <mxPoint x="710" y="2610" as="targetPoint"/>
                    </mxGeometry>
                </mxCell>
                <mxCell id="164" value="" style="endArrow=none;html=1;fontSize=13;exitX=0;exitY=0;exitDx=0;exitDy=0;entryX=0.5;entryY=1;entryDx=0;entryDy=0;" edge="1" parent="1" source="160" target="160">
                    <mxGeometry width="50" height="50" relative="1" as="geometry">
                        <mxPoint x="660" y="2660" as="sourcePoint"/>
                        <mxPoint x="710" y="2610" as="targetPoint"/>
                    </mxGeometry>
                </mxCell>
                <mxCell id="165" value="NO" style="text;html=1;strokeColor=none;fillColor=none;align=center;verticalAlign=middle;whiteSpace=wrap;rounded=0;fontSize=13;" vertex="1" parent="1">
                    <mxGeometry x="220" y="2510" width="60" height="30" as="geometry"/>
                </mxCell>
                <mxCell id="166" value="YES" style="text;html=1;strokeColor=none;fillColor=none;align=center;verticalAlign=middle;whiteSpace=wrap;rounded=0;fontSize=13;" vertex="1" parent="1">
                    <mxGeometry x="615" y="2520" width="60" height="30" as="geometry"/>
                </mxCell>
                <mxCell id="167" value="" style="rounded=0;whiteSpace=wrap;html=1;fontSize=13;" vertex="1" parent="1">
                    <mxGeometry x="180" y="2570" width="270" height="60" as="geometry"/>
                </mxCell>
                <mxCell id="168" value="-" style="text;html=1;strokeColor=none;fillColor=none;align=center;verticalAlign=middle;whiteSpace=wrap;rounded=0;fontSize=13;" vertex="1" parent="1">
                    <mxGeometry x="280" y="2585" width="60" height="30" as="geometry"/>
                </mxCell>
                <mxCell id="170" value="" style="rounded=0;whiteSpace=wrap;html=1;fontSize=13;" vertex="1" parent="1">
                    <mxGeometry x="447.5" y="2570" width="272.5" height="60" as="geometry"/>
                </mxCell>
                <mxCell id="169" value="return &quot;&quot;" style="text;html=1;strokeColor=none;fillColor=none;align=center;verticalAlign=middle;whiteSpace=wrap;rounded=0;fontSize=13;" vertex="1" parent="1">
                    <mxGeometry x="555" y="2585" width="60" height="30" as="geometry"/>
                </mxCell>
                <mxCell id="171" value="streetFlag" style="text;html=1;strokeColor=none;fillColor=none;align=center;verticalAlign=middle;whiteSpace=wrap;rounded=0;fontSize=13;" vertex="1" parent="1">
                    <mxGeometry x="415" y="2640" width="60" height="30" as="geometry"/>
                </mxCell>
                <mxCell id="172" value="" style="rounded=0;whiteSpace=wrap;html=1;fontSize=13;" vertex="1" parent="1">
                    <mxGeometry x="180" y="2690" width="540" height="60" as="geometry"/>
                </mxCell>
                <mxCell id="173" value="" style="endArrow=none;html=1;fontSize=13;exitX=0.5;exitY=0;exitDx=0;exitDy=0;entryX=1;entryY=1;entryDx=0;entryDy=0;" edge="1" parent="1" source="172" target="170">
                    <mxGeometry width="50" height="50" relative="1" as="geometry">
                        <mxPoint x="660" y="2660" as="sourcePoint"/>
                        <mxPoint x="710" y="2610" as="targetPoint"/>
                    </mxGeometry>
                </mxCell>
                <mxCell id="174" value="" style="endArrow=none;html=1;fontSize=13;exitX=0;exitY=1;exitDx=0;exitDy=0;entryX=0.5;entryY=0;entryDx=0;entryDy=0;" edge="1" parent="1" source="167" target="172">
                    <mxGeometry width="50" height="50" relative="1" as="geometry">
                        <mxPoint x="660" y="2660" as="sourcePoint"/>
                        <mxPoint x="710" y="2610" as="targetPoint"/>
                    </mxGeometry>
                </mxCell>
                <mxCell id="175" value="NO" style="text;html=1;strokeColor=none;fillColor=none;align=center;verticalAlign=middle;whiteSpace=wrap;rounded=0;fontSize=13;" vertex="1" parent="1">
                    <mxGeometry x="210" y="2650" width="60" height="30" as="geometry"/>
                </mxCell>
                <mxCell id="176" value="YES" style="text;html=1;strokeColor=none;fillColor=none;align=center;verticalAlign=middle;whiteSpace=wrap;rounded=0;fontSize=13;" vertex="1" parent="1">
                    <mxGeometry x="620" y="2660" width="60" height="30" as="geometry"/>
                </mxCell>
                <mxCell id="177" value="" style="rounded=0;whiteSpace=wrap;html=1;fontSize=13;" vertex="1" parent="1">
                    <mxGeometry x="180" y="2690" width="270" height="60" as="geometry"/>
                </mxCell>
                <mxCell id="178" value="-" style="text;html=1;strokeColor=none;fillColor=none;align=center;verticalAlign=middle;whiteSpace=wrap;rounded=0;fontSize=13;" vertex="1" parent="1">
                    <mxGeometry x="285" y="2705" width="60" height="30" as="geometry"/>
                </mxCell>
                <mxCell id="179" value="return &quot;Vul alsjeblieft je straatnaam in.&quot;" style="text;html=1;strokeColor=none;fillColor=none;align=center;verticalAlign=middle;whiteSpace=wrap;rounded=0;fontSize=13;" vertex="1" parent="1">
                    <mxGeometry x="460" y="2705" width="240" height="30" as="geometry"/>
                </mxCell>
                <mxCell id="180" value="houseNumberFlag" style="text;html=1;strokeColor=none;fillColor=none;align=center;verticalAlign=middle;whiteSpace=wrap;rounded=0;fontSize=13;" vertex="1" parent="1">
                    <mxGeometry x="420" y="2760" width="60" height="30" as="geometry"/>
                </mxCell>
                <mxCell id="181" value="" style="rounded=0;whiteSpace=wrap;html=1;fontSize=13;" vertex="1" parent="1">
                    <mxGeometry x="180" y="2820" width="540" height="60" as="geometry"/>
                </mxCell>
                <mxCell id="183" value="" style="endArrow=none;html=1;fontSize=13;exitX=0.5;exitY=0;exitDx=0;exitDy=0;entryX=1;entryY=1;entryDx=0;entryDy=0;" edge="1" parent="1" source="181" target="172">
                    <mxGeometry width="50" height="50" relative="1" as="geometry">
                        <mxPoint x="660" y="2650" as="sourcePoint"/>
                        <mxPoint x="710" y="2600" as="targetPoint"/>
                    </mxGeometry>
                </mxCell>
                <mxCell id="184" value="" style="endArrow=none;html=1;fontSize=13;exitX=0;exitY=1;exitDx=0;exitDy=0;" edge="1" parent="1" source="177">
                    <mxGeometry width="50" height="50" relative="1" as="geometry">
                        <mxPoint x="660" y="2650" as="sourcePoint"/>
                        <mxPoint x="450" y="2820" as="targetPoint"/>
                    </mxGeometry>
                </mxCell>
                <mxCell id="185" value="NO" style="text;html=1;strokeColor=none;fillColor=none;align=center;verticalAlign=middle;whiteSpace=wrap;rounded=0;fontSize=13;" vertex="1" parent="1">
                    <mxGeometry x="220" y="2780" width="60" height="30" as="geometry"/>
                </mxCell>
                <mxCell id="186" value="YES" style="text;html=1;strokeColor=none;fillColor=none;align=center;verticalAlign=middle;whiteSpace=wrap;rounded=0;fontSize=13;" vertex="1" parent="1">
                    <mxGeometry x="635" y="2780" width="60" height="30" as="geometry"/>
                </mxCell>
                <mxCell id="187" value="" style="rounded=0;whiteSpace=wrap;html=1;fontSize=13;" vertex="1" parent="1">
                    <mxGeometry x="180" y="2820" width="270" height="60" as="geometry"/>
                </mxCell>
                <mxCell id="188" value="-" style="text;html=1;strokeColor=none;fillColor=none;align=center;verticalAlign=middle;whiteSpace=wrap;rounded=0;fontSize=13;" vertex="1" parent="1">
                    <mxGeometry x="290" y="2835" width="60" height="30" as="geometry"/>
                </mxCell>
                <mxCell id="189" value="return &quot;Vul alsjeblieft je huisnummer in.&quot;" style="text;html=1;strokeColor=none;fillColor=none;align=center;verticalAlign=middle;whiteSpace=wrap;rounded=0;fontSize=13;" vertex="1" parent="1">
                    <mxGeometry x="460" y="2835" width="240" height="30" as="geometry"/>
                </mxCell>
                <mxCell id="190" value="postalcodeFlag" style="text;html=1;strokeColor=none;fillColor=none;align=center;verticalAlign=middle;whiteSpace=wrap;rounded=0;fontSize=13;" vertex="1" parent="1">
                    <mxGeometry x="420" y="2890" width="60" height="30" as="geometry"/>
                </mxCell>
                <mxCell id="191" value="" style="rounded=0;whiteSpace=wrap;html=1;fontSize=13;" vertex="1" parent="1">
                    <mxGeometry x="180" y="2930" width="540" height="60" as="geometry"/>
                </mxCell>
                <mxCell id="192" value="" style="endArrow=none;html=1;fontSize=13;exitX=0.5;exitY=0;exitDx=0;exitDy=0;entryX=1;entryY=1;entryDx=0;entryDy=0;" edge="1" parent="1" source="191" target="181">
                    <mxGeometry width="50" height="50" relative="1" as="geometry">
                        <mxPoint x="660" y="2840" as="sourcePoint"/>
                        <mxPoint x="710" y="2790" as="targetPoint"/>
                    </mxGeometry>
                </mxCell>
                <mxCell id="193" value="" style="endArrow=none;html=1;fontSize=13;exitX=0;exitY=1;exitDx=0;exitDy=0;entryX=0.5;entryY=0;entryDx=0;entryDy=0;" edge="1" parent="1" source="187" target="191">
                    <mxGeometry width="50" height="50" relative="1" as="geometry">
                        <mxPoint x="660" y="2840" as="sourcePoint"/>
                        <mxPoint x="710" y="2790" as="targetPoint"/>
                    </mxGeometry>
                </mxCell>
                <mxCell id="194" value="NO" style="text;html=1;strokeColor=none;fillColor=none;align=center;verticalAlign=middle;whiteSpace=wrap;rounded=0;fontSize=13;" vertex="1" parent="1">
                    <mxGeometry x="210" y="2900" width="60" height="30" as="geometry"/>
                </mxCell>
                <mxCell id="195" value="YES" style="text;html=1;strokeColor=none;fillColor=none;align=center;verticalAlign=middle;whiteSpace=wrap;rounded=0;fontSize=13;" vertex="1" parent="1">
                    <mxGeometry x="630" y="2900" width="60" height="30" as="geometry"/>
                </mxCell>
                <mxCell id="196" value="return &quot;Vul alsjeblieft je postcode in.&quot;" style="text;html=1;strokeColor=none;fillColor=none;align=center;verticalAlign=middle;whiteSpace=wrap;rounded=0;fontSize=13;" vertex="1" parent="1">
                    <mxGeometry x="455" y="2945" width="265" height="30" as="geometry"/>
                </mxCell>
                <mxCell id="197" value="" style="rounded=0;whiteSpace=wrap;html=1;fontSize=13;" vertex="1" parent="1">
                    <mxGeometry x="180" y="2930" width="270" height="60" as="geometry"/>
                </mxCell>
                <mxCell id="198" value="-" style="text;html=1;strokeColor=none;fillColor=none;align=center;verticalAlign=middle;whiteSpace=wrap;rounded=0;fontSize=13;" vertex="1" parent="1">
                    <mxGeometry x="280" y="2940" width="60" height="30" as="geometry"/>
                </mxCell>
                <mxCell id="199" value="" style="rounded=0;whiteSpace=wrap;html=1;fontSize=13;" vertex="1" parent="1">
                    <mxGeometry x="180" y="3060" width="540" height="60" as="geometry"/>
                </mxCell>
                <mxCell id="200" value="regex(postalcode)" style="text;html=1;strokeColor=none;fillColor=none;align=center;verticalAlign=middle;whiteSpace=wrap;rounded=0;fontSize=13;" vertex="1" parent="1">
                    <mxGeometry x="420" y="3000" width="60" height="30" as="geometry"/>
                </mxCell>
                <mxCell id="201" value="" style="endArrow=none;html=1;fontSize=13;exitX=0.5;exitY=0;exitDx=0;exitDy=0;entryX=1;entryY=1;entryDx=0;entryDy=0;" edge="1" parent="1" source="199" target="191">
                    <mxGeometry width="50" height="50" relative="1" as="geometry">
                        <mxPoint x="660" y="2900" as="sourcePoint"/>
                        <mxPoint x="710" y="2850" as="targetPoint"/>
                    </mxGeometry>
                </mxCell>
                <mxCell id="202" value="" style="endArrow=none;html=1;fontSize=13;exitX=0;exitY=1;exitDx=0;exitDy=0;" edge="1" parent="1" source="197">
                    <mxGeometry width="50" height="50" relative="1" as="geometry">
                        <mxPoint x="660" y="2900" as="sourcePoint"/>
                        <mxPoint x="460" y="3060" as="targetPoint"/>
                    </mxGeometry>
                </mxCell>
                <mxCell id="203" value="NO" style="text;html=1;strokeColor=none;fillColor=none;align=center;verticalAlign=middle;whiteSpace=wrap;rounded=0;fontSize=13;" vertex="1" parent="1">
                    <mxGeometry x="200" y="3020" width="60" height="30" as="geometry"/>
                </mxCell>
                <mxCell id="204" value="YES" style="text;html=1;strokeColor=none;fillColor=none;align=center;verticalAlign=middle;whiteSpace=wrap;rounded=0;fontSize=13;" vertex="1" parent="1">
                    <mxGeometry x="630" y="3020" width="60" height="30" as="geometry"/>
                </mxCell>
                <mxCell id="205" value="return &quot;Vul alsjeblieft een geldige Nederlandse postcode in.&quot;" style="text;html=1;strokeColor=none;fillColor=none;align=center;verticalAlign=middle;whiteSpace=wrap;rounded=0;fontSize=13;" vertex="1" parent="1">
                    <mxGeometry x="200" y="3075" width="220" height="30" as="geometry"/>
                </mxCell>
                <mxCell id="206" value="" style="rounded=0;whiteSpace=wrap;html=1;fontSize=13;" vertex="1" parent="1">
                    <mxGeometry x="460" y="3060" width="260" height="60" as="geometry"/>
                </mxCell>
                <mxCell id="207" value="-" style="text;html=1;strokeColor=none;fillColor=none;align=center;verticalAlign=middle;whiteSpace=wrap;rounded=0;fontSize=13;" vertex="1" parent="1">
                    <mxGeometry x="575" y="3075" width="60" height="30" as="geometry"/>
                </mxCell>
                <mxCell id="208" value="municipFlag" style="text;html=1;strokeColor=none;fillColor=none;align=center;verticalAlign=middle;whiteSpace=wrap;rounded=0;fontSize=13;" vertex="1" parent="1">
                    <mxGeometry x="425" y="3130" width="60" height="30" as="geometry"/>
                </mxCell>
                <mxCell id="209" value="" style="rounded=0;whiteSpace=wrap;html=1;fontSize=13;" vertex="1" parent="1">
                    <mxGeometry x="180" y="3180" width="280" height="60" as="geometry"/>
                </mxCell>
                <mxCell id="210" value="" style="rounded=0;whiteSpace=wrap;html=1;fontSize=13;" vertex="1" parent="1">
                    <mxGeometry x="460" y="3180" width="260" height="60" as="geometry"/>
                </mxCell>
                <mxCell id="211" value="" style="endArrow=none;html=1;fontSize=13;exitX=0;exitY=0;exitDx=0;exitDy=0;entryX=1;entryY=1;entryDx=0;entryDy=0;" edge="1" parent="1" source="210" target="206">
                    <mxGeometry width="50" height="50" relative="1" as="geometry">
                        <mxPoint x="660" y="3080" as="sourcePoint"/>
                        <mxPoint x="710" y="3030" as="targetPoint"/>
                    </mxGeometry>
                </mxCell>
                <mxCell id="212" value="" style="endArrow=none;html=1;fontSize=13;exitX=0.002;exitY=0.865;exitDx=0;exitDy=0;exitPerimeter=0;entryX=1;entryY=0;entryDx=0;entryDy=0;" edge="1" parent="1" source="182" target="209">
                    <mxGeometry width="50" height="50" relative="1" as="geometry">
                        <mxPoint x="660" y="3080" as="sourcePoint"/>
                        <mxPoint x="710" y="3030" as="targetPoint"/>
                    </mxGeometry>
                </mxCell>
                <mxCell id="213" value="NO" style="text;html=1;strokeColor=none;fillColor=none;align=center;verticalAlign=middle;whiteSpace=wrap;rounded=0;fontSize=13;" vertex="1" parent="1">
                    <mxGeometry x="200" y="3140" width="60" height="30" as="geometry"/>
                </mxCell>
                <mxCell id="214" value="-" style="text;html=1;strokeColor=none;fillColor=none;align=center;verticalAlign=middle;whiteSpace=wrap;rounded=0;fontSize=13;" vertex="1" parent="1">
                    <mxGeometry x="285" y="3195" width="60" height="30" as="geometry"/>
                </mxCell>
                <mxCell id="215" value="return &quot;Vul alsjeblieft je woonplaats in.&quot;" style="text;html=1;strokeColor=none;fillColor=none;align=center;verticalAlign=middle;whiteSpace=wrap;rounded=0;fontSize=13;" vertex="1" parent="1">
                    <mxGeometry x="470" y="3195" width="230" height="30" as="geometry"/>
                </mxCell>
                <mxCell id="216" value="" style="rounded=0;whiteSpace=wrap;html=1;fontSize=13;" vertex="1" parent="1">
                    <mxGeometry x="180" y="3240" width="540" height="50" as="geometry"/>
                </mxCell>
                <mxCell id="217" value="return &quot;&quot;" style="text;html=1;strokeColor=none;fillColor=none;align=center;verticalAlign=middle;whiteSpace=wrap;rounded=0;fontSize=13;" vertex="1" parent="1">
                    <mxGeometry x="430" y="3250" width="60" height="30" as="geometry"/>
                </mxCell>
            </root>
        </mxGraphModel>
    </diagram>
</mxfile>